<?xml version="1.0" encoding="utf-8"?>
<!-- Generator: Adobe Illustrator 21.0.0, SVG Export Plug-In . SVG Version: 6.00 Build 0)  -->
<svg version="1.1" id="Capa_1" xmlns="http://www.w3.org/2000/svg" xmlns:xlink="http://www.w3.org/1999/xlink" x="0px" y="0px"
	 viewBox="0 0 34.2 16.2" style="enable-background:new 0 0 34.2 16.2;" xml:space="preserve">
<style type="text/css">
	.st0{enable-background:new    ;}
	.st1{fill:#959595;}
</style>
<g class="st0">
	<path class="st1" d="M0.9,7.9C0.9,5.7,2.6,4,4.8,4c0.9,0,1.8,0.3,2.4,1L6.8,5.3C6.3,4.8,5.6,4.6,4.9,4.6C3,4.6,1.5,6,1.5,7.9
		c0,1.8,1.5,3.3,3.3,3.3c0.8,0,1.4-0.2,2-0.8l0.3,0.4c-0.7,0.6-1.5,1-2.4,1C2.6,11.8,0.9,10,0.9,7.9z"/>
	<path class="st1" d="M9,0.8h0.7v1H9V0.8z M9,4.1h0.6v7.6H9V4.1z"/>
	<path class="st1" d="M14.9,11.7h-0.6L11,4.1h0.7l2.8,6.6l2.9-6.6h0.7L14.9,11.7z"/>
	<path class="st1" d="M19.3,0.8H20v1h-0.7V0.8z M19.4,4.1H20v7.6h-0.6V4.1z"/>
	<path class="st1" d="M23.6,2.8v1.4h2.2v0.6h-2.2v6.8h-0.7V4.8h-1.3V4.2h1.3V2.8c0-1.4,1-2.4,2.3-2.4c0.9,0,1.4,0.5,1.5,0.6
		l-0.3,0.4C26,1.1,25.6,1,25.3,1C24.2,1,23.6,1.9,23.6,2.8z"/>
	<path class="st1" d="M33.9,4.1c-3.6,8.3-3.7,8.7-4.3,9.9c-0.6,1.3-1.1,1.8-2.2,1.8v-0.6c0.7,0,1.1-0.4,1.3-0.9l1.2-2.6l-3.3-7.6
		h0.7l2.9,6.8l2.9-6.8C33.1,4.1,33.9,4.1,33.9,4.1z"/>
</g>
</svg>
