<?xml version="1.0" encoding="utf-8"?>
<!-- Generator: Adobe Illustrator 21.0.0, SVG Export Plug-In . SVG Version: 6.00 Build 0)  -->
<svg version="1.1" id="Layer_1" xmlns="http://www.w3.org/2000/svg" xmlns:xlink="http://www.w3.org/1999/xlink" x="0px" y="0px"
	 viewBox="0 0 51.7 66.6" style="enable-background:new 0 0 51.7 66.6;" xml:space="preserve">
<style type="text/css">
	.st0{opacity:0.4;fill:#3498DB;enable-background:new    ;}
	.st1{fill:#3498DB;}
	.st2{fill:#FFFFFF;}
</style>
<path class="st0" d="M51.7,25.8c0,20.7-23.4,39.9-23.4,39.9c-1.4,1.1-3.6,1.1-5,0c0,0-23.4-19.2-23.4-39.9C0,11.6,11.6,0,25.9,0
	S51.7,11.6,51.7,25.8z"/>
<path class="st1" d="M49.6,26.3c0,19-21.4,36.6-21.4,36.6c-1.2,1-3.3,1-4.6,0c0,0-21.4-17.6-21.4-36.6c0-13.1,10.6-23.7,23.7-23.7
	S49.6,13.2,49.6,26.3z"/>
<path class="st2" d="M43.9,30.9l-3.4-4.7h-2.1v-5.1h3.8v-6.9h-3.8v-1.5h-1.6v1.5H14.7v-1.5h-1.6v1.5H9.3v6.9h3.8v5.1H11l-3.4,4.7
	v1.3h2.5v5.9h1.6v-5.9h1.4v3.4h1.6v-3.4h22.2v3.4h1.6v-3.4h1.4v5.9h1.6v-5.9h2.5V30.9z M14.7,26.3v-5.1h22.2v5.1H14.7z"/>
</svg>
