<?xml version="1.0" encoding="utf-8"?>
<!-- Generator: Adobe Illustrator 21.0.0, SVG Export Plug-In . SVG Version: 6.00 Build 0)  -->
<svg version="1.1" id="Capa_1" xmlns="http://www.w3.org/2000/svg" xmlns:xlink="http://www.w3.org/1999/xlink" x="0px" y="0px"
	 viewBox="0 0 612 612" style="enable-background:new 0 0 612 612;" xml:space="preserve">
<style type="text/css">
	.st0{fill:#27AE60;}
</style>
<path class="st0" d="M579.7,300.4L444.8,165.4c-3.4-3.4-8.7-3.4-12,0L305.1,293.1L177.4,165.4c-3.4-3.4-8.7-3.4-12,0L30.5,300.4
	c-1.6,1.5-2.5,3.7-2.5,6s0.9,4.4,2.5,6.1l107.1,107.1c1.6,1.6,3.8,2.5,6.1,2.5c2.3,0,4.4-0.9,6-2.5l128.8-128.9l14.6,14.6
	l-87.7,87.7c-3.4,3.4-3.4,8.7,0,12c1.6,1.6,3.8,2.5,6,2.5c2.2,0,4.3-0.8,6-2.5l87.7-87.7l87.7,87.7c1.6,1.6,3.8,2.5,6,2.5
	s4.3-0.8,6-2.5c3.4-3.4,3.4-8.7,0-12L317,305.3l14.6-14.6l128.9,128.9c1.6,1.6,3.8,2.5,6,2.5c2.3,0,4.4-0.9,6-2.5l107.3-107.1
	c1.6-1.6,2.5-3.8,2.5-6.1S581.3,301.9,579.7,300.4z M239.5,305.6l-29.7-29.7l-34,34l29.7,29.7l-34,34l-29.7-29.7l-27.9,27.9
	l-35.7-35.7l27.9-27.9l35.7,35.7l34-34l-35.7-35.7l-34,34l-29.7-29.7l34-34l29.7,29.7l34-34l-29.7-29.7l27-27l29.7,29.7l-27,27
	l35.7,35.7l27-27l29.7,29.7L239.5,305.6z M532,336.1l-35.7,35.7l-27.9-27.9l-29.7,29.7l-34-34l29.7-29.7l-34-34l-29.7,29.7l-27-27
	l29.7-29.7l27,27l35.7-35.7l-27-27l29.7-29.7l27,27l-29.7,29.7l34,34l-35.7,35.7l34,34l35.7-35.7l-34-34l29.7-29.7l34,34l-29.7,29.7
	L532,336.1z"/>
</svg>
