<?xml version="1.0" encoding="utf-8"?>
<!-- Generator: Adobe Illustrator 21.0.0, SVG Export Plug-In . SVG Version: 6.00 Build 0)  -->
<svg version="1.1" id="Capa_1" xmlns="http://www.w3.org/2000/svg" xmlns:xlink="http://www.w3.org/1999/xlink" x="0px" y="0px"
	 viewBox="0 0 470 470" style="enable-background:new 0 0 470 470;" xml:space="preserve">
<style type="text/css">
	.st0{fill:#27AE60;}
</style>
<g>
	<path class="st0" d="M384.3,353.8H90.6c-2.6,0-4.8,2.2-4.8,4.8s2.2,4.8,4.8,4.8h293.7c2.6,0,4.8-2.2,4.8-4.8S387,353.8,384.3,353.8
		z"/>
	<path class="st0" d="M384.3,373.2H90.6c-2.6,0-4.8,2.2-4.8,4.8c0,2.6,2.2,4.8,4.8,4.8h293.7c2.6,0,4.8-2.2,4.8-4.8
		C389.2,375.4,387,373.2,384.3,373.2z"/>
	<path class="st0" d="M384.3,98.9h-16.1V94c0-8-6.5-14.5-14.5-14.5c-8,0-14.5,6.5-14.5,14.5v4.8h-48.4V94c0-8-6.5-14.5-14.5-14.5
		S261.7,86,261.7,94v4.8h-48.4V94c0-8-6.5-14.5-14.5-14.5c-8,0-14.5,6.5-14.5,14.5v4.8h-48.4V94c0-8-6.5-14.5-14.5-14.5
		S106.8,86,106.8,94v4.8H90.6c-2.6,0-4.8,2.2-4.8,4.8v235.6c0,2.6,2.2,4.8,4.8,4.8h293.7c2.6,0,4.8-2.2,4.8-4.8V103.7
		C389.2,101.1,387,98.9,384.3,98.9z M348.8,94c0-2.6,2.2-4.8,4.8-4.8c2.6,0,4.8,2.2,4.8,4.8v19.4c0,2.6-2.2,4.8-4.8,4.8
		c-2.6,0-4.8-2.2-4.8-4.8V94z M271.4,94c0-2.6,2.2-4.8,4.8-4.8s4.8,2.2,4.8,4.8v19.4c0,2.6-2.2,4.8-4.8,4.8s-4.8-2.2-4.8-4.8V94z
		 M193.9,94c0-2.6,2.2-4.8,4.8-4.8c2.6,0,4.8,2.2,4.8,4.8v19.4c0,2.6-2.2,4.8-4.8,4.8c-2.6,0-4.8-2.2-4.8-4.8V94z M116.4,94
		c0-2.6,2.2-4.8,4.8-4.8c2.6,0,4.8,2.2,4.8,4.8v19.4c0,2.6-2.2,4.8-4.8,4.8c-2.6,0-4.8-2.2-4.8-4.8V94z M106.8,108.5v4.8
		c0,8,6.5,14.5,14.5,14.5s14.5-6.5,14.5-14.5v-4.8h48.4v4.8c0,8,6.5,14.5,14.5,14.5c8,0,14.5-6.5,14.5-14.5v-4.8h48.4v4.8
		c0,8,6.5,14.5,14.5,14.5s14.5-6.5,14.5-14.5v-4.8h48.4v4.8c0,8,6.5,14.5,14.5,14.5c8,0,14.5-6.5,14.5-14.5v-4.8h11.3v49.9h-284
		v-49.9H106.8z M95.5,334.5V168.1h284v166.4H95.5z"/>
	<path class="st0" d="M351.7,225.9h-19.4c-2.6,0-4.8,2.2-4.8,4.8c0,2.6,2.2,4.8,4.8,4.8h19.4c2.6,0,4.8-2.2,4.8-4.8
		C356.6,228.1,354.4,225.9,351.7,225.9z"/>
	<path class="st0" d="M299.5,225.9h-19.4c-2.6,0-4.8,2.2-4.8,4.8c0,2.6,2.2,4.8,4.8,4.8h19.4c2.6,0,4.8-2.2,4.8-4.8
		C304.3,228.1,302.1,225.9,299.5,225.9z"/>
	<path class="st0" d="M247.2,225.9h-19.4c-2.6,0-4.8,2.2-4.8,4.8c0,2.6,2.2,4.8,4.8,4.8h19.4c2.6,0,4.8-2.2,4.8-4.8
		C252,228.1,249.8,225.9,247.2,225.9z"/>
	<path class="st0" d="M194.9,225.9h-19.4c-2.6,0-4.8,2.2-4.8,4.8c0,2.6,2.2,4.8,4.8,4.8h19.4c2.6,0,4.8-2.2,4.8-4.8
		C199.7,228.1,197.5,225.9,194.9,225.9z"/>
	<path class="st0" d="M142.6,225.9h-19.4c-2.6,0-4.8,2.2-4.8,4.8c0,2.6,2.2,4.8,4.8,4.8h19.4c2.6,0,4.8-2.2,4.8-4.8
		C147.4,228.1,145.2,225.9,142.6,225.9z"/>
	<path class="st0" d="M299.5,260.8h-19.4c-2.6,0-4.8,2.2-4.8,4.8c0,2.6,2.2,4.8,4.8,4.8h19.4c2.6,0,4.8-2.2,4.8-4.8
		C304.3,263,302.1,260.8,299.5,260.8z"/>
	<path class="st0" d="M247.2,260.8h-19.4c-2.6,0-4.8,2.2-4.8,4.8c0,2.6,2.2,4.8,4.8,4.8h19.4c2.6,0,4.8-2.2,4.8-4.8
		C252,263,249.8,260.8,247.2,260.8z"/>
	<path class="st0" d="M194.9,260.8h-19.4c-2.6,0-4.8,2.2-4.8,4.8c0,2.6,2.2,4.8,4.8,4.8h19.4c2.6,0,4.8-2.2,4.8-4.8
		C199.7,263,197.5,260.8,194.9,260.8z"/>
	<path class="st0" d="M142.6,260.8h-19.4c-2.6,0-4.8,2.2-4.8,4.8c0,2.6,2.2,4.8,4.8,4.8h19.4c2.6,0,4.8-2.2,4.8-4.8
		C147.4,263,145.2,260.8,142.6,260.8z"/>
	<path class="st0" d="M299.5,295.6h-19.4c-2.6,0-4.8,2.2-4.8,4.8c0,2.6,2.2,4.8,4.8,4.8h19.4c2.6,0,4.8-2.2,4.8-4.8
		C304.3,297.8,302.1,295.6,299.5,295.6z"/>
	<path class="st0" d="M351.7,260.8h-19.4c-2.6,0-4.8,2.2-4.8,4.8c0,2.6,2.2,4.8,4.8,4.8h19.4c2.6,0,4.8-2.2,4.8-4.8
		C356.6,263,354.4,260.8,351.7,260.8z"/>
	<path class="st0" d="M351.7,295.6h-19.4c-2.6,0-4.8,2.2-4.8,4.8c0,2.6,2.2,4.8,4.8,4.8h19.4c2.6,0,4.8-2.2,4.8-4.8
		C356.6,297.8,354.4,295.6,351.7,295.6z"/>
	<path class="st0" d="M247.2,295.6h-19.4c-2.6,0-4.8,2.2-4.8,4.8c0,2.6,2.2,4.8,4.8,4.8h19.4c2.6,0,4.8-2.2,4.8-4.8
		C252,297.8,249.8,295.6,247.2,295.6z"/>
	<path class="st0" d="M194.9,295.6h-19.4c-2.6,0-4.8,2.2-4.8,4.8c0,2.6,2.2,4.8,4.8,4.8h19.4c2.6,0,4.8-2.2,4.8-4.8
		C199.7,297.8,197.5,295.6,194.9,295.6z"/>
	<path class="st0" d="M142.6,295.6h-19.4c-2.6,0-4.8,2.2-4.8,4.8c0,2.6,2.2,4.8,4.8,4.8h19.4c2.6,0,4.8-2.2,4.8-4.8
		C147.4,297.8,145.2,295.6,142.6,295.6z"/>
	<path class="st0" d="M351.7,191h-19.4c-2.6,0-4.8,2.2-4.8,4.8c0,2.6,2.2,4.8,4.8,4.8h19.4c2.6,0,4.8-2.2,4.8-4.8
		C356.6,193.2,354.4,191,351.7,191z"/>
	<path class="st0" d="M299.5,191h-19.4c-2.6,0-4.8,2.2-4.8,4.8c0,2.6,2.2,4.8,4.8,4.8h19.4c2.6,0,4.8-2.2,4.8-4.8
		C304.3,193.2,302.1,191,299.5,191z"/>
	<path class="st0" d="M247.2,191h-19.4c-2.6,0-4.8,2.2-4.8,4.8c0,2.6,2.2,4.8,4.8,4.8h19.4c2.6,0,4.8-2.2,4.8-4.8
		C252,193.2,249.8,191,247.2,191z"/>
	<path class="st0" d="M194.9,191h-19.4c-2.6,0-4.8,2.2-4.8,4.8c0,2.6,2.2,4.8,4.8,4.8h19.4c2.6,0,4.8-2.2,4.8-4.8
		C199.7,193.2,197.5,191,194.9,191z"/>
	<path class="st0" d="M142.6,191h-19.4c-2.6,0-4.8,2.2-4.8,4.8c0,2.6,2.2,4.8,4.8,4.8h19.4c2.6,0,4.8-2.2,4.8-4.8
		C147.4,193.2,145.2,191,142.6,191z"/>
</g>
</svg>
