<svg version="1" xmlns="http://www.w3.org/2000/svg" width="933.333" height="933.333" viewBox="0 0 700.000000 700.000000"><path d="M197.5 6.6c-7.4 1.2-15.6 3.9-23.3 7.5C148.6 26 130 49 124.5 75.6c-4.5 21.7.1 43.9 15.1 72.4 8.6 16.3 18.4 30.1 43.6 61.5 22.5 28 23.4 29 26.8 29 3.4 0 4.3-1 28.9-31.5 27.8-34.6 35.1-45 43.4-61.5 10.3-20.7 14.7-36.2 14.7-52.3 0-24.8-7.9-43.4-26.4-61.8-9.2-9.1-11.1-10.5-21.6-15.7-6.3-3.1-14.2-6.3-17.5-7.2-6-1.6-28.1-2.8-34-1.9zm16.7 83.1c2.2 2 2.3 4.2.2 7.1-2.9 4.2-10.4 1.6-10.4-3.7 0-4.4 6.7-6.6 10.2-3.4zM333.8 99.1c-2.8 2.3-3.3 6.4-1 8.7 1.7 1.7 3.9 2 24.3 2.5 23.7.6 35.9 2 54.5 6.2 2 .4 2.2 1.3 2.6 9.2.5 9.7 2.2 14.4 10.5 28.6l4.6 7.9-.6 13.1c-1.3 27-5.6 40-13.5 41.2-16.9 2.7-33.1 11.2-46.3 24.4-8.3 8.3-12.9 17.3-13.6 26.4-.7 7.8.5 11.7 6.5 22.2 2.5 4.4 9 16.4 14.3 26.7 16.9 32.6 24.3 39 39.8 34.8 9.4-2.5 17.1-12.5 34.4-44.5 4.8-8.8 10.1-18.3 12-21 3-4.6 3.6-5 6.7-4.7 5.5.5 11.6 3.9 16.3 9.2 2.4 2.6 8.3 12.3 13.3 21.6 15.1 28.4 18.6 31.2 39.6 32.1 14 .6 31.9-1.2 51.6-5.3 20.7-4.2 45.3-12.4 47.4-15.7 1.4-2.2.8-6.3-2.6-16.9-21.2-65.4-63.5-120.7-121.6-159.1-14.8-9.8-47.9-26.7-52.2-26.7-4.8 0-8.1 5.4-5.5 9.3.8 1.3 6 4.2 12.5 7 49.8 21.6 95.1 61.5 126.1 110.9 10.9 17.4 22.8 42.9 28.6 61.5l2.3 7.2-7.7 2.5C588 328 541.2 334.6 528 331c-6.6-1.8-9.9-6.1-20-26-7.2-14-10.4-19.3-15.1-24.4-7.4-8-15.7-12.4-25.1-13.2-5.5-.5-6.7-.3-9.8 1.8-4.8 3.2-11.2 13.1-22 34.3-13.2 25.8-20 34.8-26.2 34.8-4.5 0-10.8-7.2-18.2-20.9-3.3-6-10.1-18.1-15.3-26.9-11.1-19.3-12-22.5-7.9-30.9 5.9-12.1 27.2-27.1 42.1-29.7 10.2-1.8 13.3-2.9 16.5-5.6 8.7-7.2 14-28.5 14-55.9v-11l-4-6.5c-2.3-3.5-5.5-9.3-7.3-12.9-3-6.1-3.2-7.1-3-16.7.1-6.5-.3-10.7-1.1-11.8-1.4-1.9-17.2-5.6-36.4-8.5-17.8-2.7-52.9-3.8-55.4-1.9zM123.2 205.2c-19.8 20.6-43.8 63.1-56.2 99.3-7.1 20.8-7.5 25.6-2.3 27.6 4 1.5 6.8-1 8.7-7.8 10.7-38.8 32.5-81.5 55-107.7 8.1-9.4 9.2-12.4 5.4-15-3.6-2.5-5.3-1.9-10.6 3.6z"/><path d="M233.5 321.6c-1.1.2-4.5.9-7.5 1.5-10.2 2.1-18.7 7.6-21.9 14.3-2.4 5-2.6 10.7-.6 19.1 6.4 26.5-9.7 59.8-41.5 85.6-10 8.1-15.2 10.9-20.5 10.9-10.3 0-18.6-20.3-17.3-42.3.7-10.8 3.3-18.6 8-24.3 6.7-8.1 4.9-15.2-5.1-20.3-9.5-4.9-31.8-8.1-56.2-8.1-9.7 0-13.9.4-14.7 1.2-3.2 4-4.3 50.1-1.6 72.8 6.8 59.1 31.2 115.1 69.4 159.4 29.2 34 64.9 60.7 104 78.2 17.5 7.8 46.2 17.4 51.9 17.4 2.6 0 6.1-3.4 6.1-5.8 0-3.8-2.7-5.3-16.1-9.2-38.6-11.2-73.3-29.8-104.4-55.9-13.9-11.7-19.9-17.6-31-30.6-36.7-43.2-57.7-88.9-67.1-146.2-1.7-10.2-3.2-61.9-2-66.8.6-2.4.8-2.5 9.7-2.5 11.5 0 25.9 1.6 37.4 4.1 12.4 2.7 12.4 2.7 8.1 8.3-5.3 7-7.8 15.8-8.4 30.4-1.4 35.4 13.9 58.2 35.3 52.7 7.9-2.1 18.7-9.8 31.5-22.5 17-16.8 26.5-31.1 32.9-49.3 3.3-9.7 3.5-10.9 3.5-23.2 0-7.2-.4-15.8-.8-19.3-.9-6.3-.9-6.3 2.4-9.7 8.3-8.5 30.9-9.7 42.7-2.2 10.7 6.8 14 15.9 12.4 34.6-1.5 16-3.5 20.6-15.3 34.6-16.1 19.1-20.6 41.4-10.8 53.7 1.2 1.5 6.2 5.5 11.1 8.9 16.8 11.5 26.8 25.6 28.8 40.4 1.9 14.5-1.2 31-10.1 53.9-2.7 7.2-5.6 16-6.4 19.6-5.6 26.6 6.8 53.6 36.6 79.1 9.9 8.4 25.7 20.1 32.6 23.9 2.1 1.2 5.2 3.1 6.8 4.3 2.6 1.9 3.8 2 17.5 1.4 74.7-3.2 144.4-33.8 197.1-86.7 49.6-49.6 79.3-113 86.1-183.3 1.4-15 .7-64-1-68.1-2.3-5.6-6.5-7.1-9.7-3.5-2.1 2.3-2.1 1.3-.6 29.2 4.5 82.3-25.6 160-84.4 217.9-14.7 14.4-25.2 23.1-41.9 34.3-42.8 28.8-93.3 45.7-143.5 48.1l-13.5.7-7.5-4.8c-20.5-13.2-44.4-34.5-52.5-46.9-5.3-8.2-9.2-17.8-10.5-26-1.5-9.2.1-19.1 5-32.1 8.8-23.3 12-37.2 12-52.5 0-12-2.6-22.8-7.6-31.8-4.9-8.7-15.8-20-26.3-27-11.2-7.5-12.8-10.4-11.1-19.9 1.7-10.3 6.6-19.6 15-28.8 12.3-13.6 16.5-25.8 16.5-48-.1-14.7-2.1-20.7-9.6-28.9-5.7-6.2-11.1-9.7-18.6-11.9-5.4-1.6-19.3-2.9-22.8-2.1z"/><path d="M513.5 401.6c-1.6.3-9.5 2-17.5 3.9-8 1.8-16.5 3.6-19 4-7.8 1.3-13.3 4.9-21.6 14.2-11.3 12.5-15.8 16.9-18.1 17.5-1.1.3-4.6-.3-7.9-1.3-7.7-2.4-17.7-2.4-22.9 0-8.9 4-13.2 13-10 20.7 2.6 6.2 5.1 8.2 20.9 16.1 18 9 29.1 15.8 36.7 22.4 7.8 6.8 13.2 8.9 23.7 9.6 21.6 1.4 39.3-9.1 47.7-28.3 5.3-12.1 8.1-16.1 20.6-29 12.2-12.7 14.9-17.1 14.9-24.4 0-6.5-2.6-11.6-8.6-16.8-6.7-6-13.8-8.3-25.9-8.7-5.5-.2-11.3-.1-13 .1zm27.2 17c5.8 2.8 9.3 6.8 9.3 10.7 0 2.6-6.6 10.6-15.3 18.6-7.2 6.7-13.4 15.5-18.8 26.7-7.8 16.3-16.8 22.5-33 22.6-11 0-13.5-.8-21.4-6.6-11.1-8.3-15-10.8-32-20-17.4-9.5-20.7-12-20.3-15 .7-4.5 11.4-6.2 17.2-2.7 1.7 1.1 5 2.4 7.4 3 8.8 2.4 15.1-1.6 29.4-18.7 6.9-8.2 12.5-12.2 17-12.2 1.3 0 4.6-.6 7.3-1.4 20.8-5.7 25.3-6.8 30.8-7.6 8.7-1.2 16.3-.3 22.4 2.6zM350.7 573.5c-13.4 4.9-26.7 22.8-26.7 35.8 0 9.8 3.6 15.4 13.1 20.2 15.6 8 36.6 3.1 42.8-9.9 2.6-5.3 2.8-15.3.4-22.6-2.2-6.8-10.9-19.8-15.2-22.7-3.9-2.6-8.7-2.9-14.4-.8zm10.5 14.5c7.3 8.5 11.5 21.4 8.7 26.6-2.4 4.5-9.1 7.6-16.4 7.6-7.1 0-14.7-2.9-16.6-6.4-2.1-3.9 2.1-15.3 8.2-22.3 3.4-3.8 10.5-9.5 12-9.5.4 0 2.3 1.8 4.1 4z"/></svg>